<?xml version="1.0" standalone="no"?>
<!DOCTYPE svg PUBLIC "-//W3C//DTD SVG 20010904//EN"
 "http://www.w3.org/TR/2001/REC-SVG-20010904/DTD/svg10.dtd">
<svg version="1.0" xmlns="http://www.w3.org/2000/svg"
 width="1024.000000pt" height="1024.000000pt" viewBox="0 0 1024.000000 1024.000000"
 preserveAspectRatio="xMidYMid meet">

<g transform="translate(0.000000,1024.000000) scale(0.100000,-0.100000)"
fill="#000000" stroke="none">
<path d="M6889 8485 c-284 -54 -527 -229 -664 -478 -41 -75 -90 -211 -100
-280 -7 -45 -9 -47 -49 -57 -158 -41 -278 -108 -361 -203 -56 -64 -106 -159
-136 -257 -30 -96 -32 -270 -5 -370 58 -215 226 -390 446 -465 123 -42 239
-55 507 -55 l241 0 26 31 26 31 0 240 0 240 33 39 c77 89 75 208 -4 294 -69
75 -164 94 -256 51 -88 -41 -134 -142 -112 -245 14 -68 75 -137 135 -153 l44
-12 0 -169 0 -169 -232 5 c-192 3 -245 8 -304 24 -249 70 -392 243 -397 478
-4 273 174 476 449 511 82 10 108 38 117 122 18 167 88 327 194 442 157 170
355 249 593 237 295 -14 529 -204 630 -512 13 -40 35 -82 51 -97 27 -27 30
-28 146 -28 192 0 302 -41 414 -154 143 -145 204 -387 149 -600 -27 -105 -63
-169 -141 -247 -111 -112 -243 -162 -457 -176 -84 -5 -106 -3 -113 8 -5 8 -9
86 -9 175 l0 161 41 12 c53 16 124 87 138 137 42 152 -55 284 -209 284 -71 0
-124 -23 -165 -72 -76 -90 -74 -198 5 -298 l30 -38 -2 -184 -3 -183 -59 -5
c-45 -4 -62 -11 -77 -29 -25 -31 -24 -82 2 -116 l22 -27 266 5 c282 5 344 13
463 61 157 64 305 194 376 332 156 305 97 694 -143 929 -127 124 -273 190
-454 203 -68 5 -96 11 -101 22 -4 8 -30 62 -58 120 -116 239 -315 410 -549
471 -104 27 -283 33 -384 14z m882 -1364 c17 -18 29 -40 29 -56 0 -36 -41 -75
-80 -75 -39 0 -80 39 -80 75 0 32 50 85 80 85 12 0 35 -13 51 -29z m-1037 -13
c37 -34 42 -70 14 -102 -30 -36 -79 -38 -113 -6 -33 31 -33 73 0 105 30 31 66
32 99 3z"/>
<path d="M7102 7664 c-64 -32 -97 -70 -117 -136 -32 -108 -15 -172 66 -250
l59 -57 0 -415 c0 -283 4 -423 11 -439 22 -49 83 -60 126 -23 l28 24 3 430 3
429 44 33 c144 108 122 331 -39 406 -66 31 -119 30 -184 -2z m164 -167 c30
-36 26 -80 -12 -114 -33 -30 -75 -29 -113 3 -50 42 -39 113 21 138 41 18 74 9
104 -27z"/>
<path d="M3296 7205 c-248 -88 -640 -665 -1166 -1715 -309 -616 -557 -1229
-825 -2035 -193 -580 -196 -597 -103 -643 41 -21 52 -22 82 -12 63 21 71 38
191 435 290 957 529 1572 897 2310 322 644 636 1150 836 1348 86 86 106 87
110 7 6 -111 -32 -326 -164 -910 -47 -206 -103 -449 -124 -540 -51 -216 -183
-807 -209 -935 -45 -223 -63 -346 -68 -460 -4 -103 -2 -125 14 -155 30 -58
107 -79 169 -47 80 42 160 155 330 468 286 529 531 937 844 1408 90 136 356
503 466 644 144 185 222 269 248 265 14 -2 22 -11 24 -29 5 -47 -46 -267 -158
-680 -202 -739 -353 -1360 -565 -2309 -202 -908 -218 -994 -185 -1054 29 -56
117 -74 171 -35 38 27 59 69 119 237 252 713 581 1395 1004 2088 343 561 656
945 692 849 10 -26 -15 -147 -151 -740 -202 -878 -281 -1281 -306 -1560 -18
-203 -2 -276 68 -309 94 -45 187 11 325 195 30 41 147 211 259 379 575 861
970 1385 1127 1494 55 38 66 28 59 -48 -6 -58 -34 -157 -180 -651 -146 -493
-206 -752 -233 -1009 -28 -259 -7 -445 67 -594 103 -210 297 -312 569 -298
201 10 364 57 605 176 243 119 431 240 653 418 121 97 147 148 103 203 -32 40
-87 33 -152 -19 -321 -255 -748 -486 -1024 -553 -128 -31 -298 -31 -376 -1
-176 70 -249 251 -220 554 24 263 76 471 321 1288 126 421 160 558 160 642 0
139 -67 218 -185 218 -135 0 -291 -123 -528 -418 -225 -279 -442 -584 -776
-1087 -312 -470 -378 -564 -393 -565 -13 0 -9 59 12 185 41 244 112 564 295
1330 79 330 148 632 154 672 32 209 -5 327 -114 369 -84 32 -191 -2 -303 -95
-210 -175 -662 -848 -1041 -1548 -91 -168 -321 -637 -321 -654 0 -5 -4 -8 -9
-5 -4 3 -2 34 5 68 173 808 261 1168 449 1843 188 672 192 687 220 810 51 229
54 378 8 458 -28 49 -96 80 -160 73 -79 -7 -143 -48 -250 -159 -363 -379
-1014 -1355 -1492 -2239 -95 -177 -159 -288 -165 -288 -20 0 143 742 318 1450
180 730 216 898 237 1085 12 119 7 259 -12 315 -38 111 -137 157 -253 115z"/>
</g>
</svg>
