<?xml version="1.0" standalone="no"?>
<!DOCTYPE svg PUBLIC "-//W3C//DTD SVG 20010904//EN"
 "http://www.w3.org/TR/2001/REC-SVG-20010904/DTD/svg10.dtd">
<svg version="1.0" xmlns="http://www.w3.org/2000/svg"
 width="1421.000000pt" height="200.000000pt" viewBox="0 0 1421.000000 200.000000"
 preserveAspectRatio="xMidYMid meet">

<g transform="translate(0.000000,314.000000) scale(0.100000,-0.100000)"
fill="#000000" stroke="none">
<path d="M12903 2793 c-18 -18 -20 -41 -27 -229 -12 -352 -24 -640 -37 -849
-18 -313 0 -461 66 -531 28 -29 39 -34 79 -34 55 0 92 28 82 63 -3 12 -15 56
-27 97 -19 68 -21 99 -21 345 -1 178 5 338 17 470 23 262 25 568 3 610 -34 65
-100 93 -135 58z"/>
<path d="M7227 2708 c-17 -18 -26 -49 -40 -133 -10 -60 -25 -139 -33 -175 -18
-82 -34 -265 -34 -395 0 -55 -3 -123 -6 -151 l-7 -52 -28 33 c-45 51 -131 79
-248 79 -119 0 -166 -19 -253 -101 -107 -103 -148 -202 -148 -359 0 -117 18
-175 73 -232 61 -63 123 -79 241 -63 66 9 106 20 149 44 74 39 207 163 253
235 20 30 37 53 39 51 2 -2 13 -33 25 -69 51 -152 108 -233 173 -245 29 -6 42
-3 57 10 31 28 25 84 -19 188 -60 140 -114 323 -118 397 -3 48 1 81 17 125 51
144 59 180 71 297 6 69 9 194 7 279 -5 186 -15 218 -77 242 -54 22 -68 21 -94
-5z m-155 -987 c15 -5 12 -15 -20 -79 -128 -255 -318 -367 -430 -255 -22 23
-24 30 -20 91 6 77 31 133 80 178 85 77 112 86 258 78 63 -4 123 -9 132 -13z"/>
<path d="M3332 2698 c-15 -19 -16 -162 -4 -728 10 -454 9 -513 -6 -586 -23
-116 -1 -184 64 -203 43 -12 73 5 103 58 20 36 25 62 29 157 3 63 7 114 9 114
3 0 44 -39 91 -88 48 -48 126 -113 173 -145 162 -108 260 -137 329 -99 30 17
36 26 44 71 12 67 -1 118 -36 144 -25 19 -32 19 -80 8 -41 -10 -60 -10 -83 -1
-79 30 -315 215 -289 226 6 3 60 37 119 77 181 120 240 154 293 166 28 7 58
21 68 32 17 19 17 22 -4 65 -53 109 -163 82 -461 -115 -85 -56 -159 -100 -165
-98 -7 2 -13 83 -17 228 -4 123 -9 231 -12 239 -3 8 -11 96 -17 195 -13 226
-15 237 -45 269 -26 28 -84 36 -103 14z"/>
<path d="M1073 2428 c-26 -27 -45 -105 -68 -268 -21 -158 -56 -280 -127 -450
-66 -156 -106 -226 -157 -277 -57 -57 -49 -124 24 -212 50 -59 120 -27 172 79
79 160 187 456 227 623 l22 92 34 -105 c62 -195 115 -296 190 -364 l39 -35 46
15 c59 21 75 43 118 166 53 153 68 185 77 168 9 -18 26 -112 35 -190 17 -149
120 -500 161 -550 63 -75 162 -94 194 -38 14 27 13 31 -26 105 -111 208 -183
569 -184 914 0 160 -11 206 -63 255 -33 32 -53 42 -92 48 -48 6 -51 5 -77 -26
-19 -22 -28 -44 -28 -68 0 -68 -39 -216 -87 -335 -53 -131 -69 -163 -77 -154
-3 3 -33 106 -67 230 -67 246 -102 321 -168 364 -56 37 -92 41 -118 13z"/>
<path d="M8754 2435 c-26 -18 -48 -95 -69 -245 -29 -208 -55 -298 -143 -505
-55 -131 -107 -219 -156 -264 -37 -34 -35 -90 4 -158 34 -59 59 -77 98 -68 66
15 97 69 217 375 54 137 109 312 121 385 4 22 9 44 12 49 2 4 24 -50 47 -121
61 -185 126 -304 193 -352 25 -17 31 -18 66 -6 55 19 82 50 106 119 32 97 84
226 90 226 8 0 28 -100 36 -175 11 -115 109 -477 150 -557 23 -44 95 -88 146
-88 38 0 46 4 61 30 l18 30 -41 75 c-44 80 -76 169 -115 325 -42 163 -57 287
-65 520 -5 139 -13 240 -21 263 -19 55 -81 103 -145 111 -47 6 -51 4 -71 -22
-14 -19 -26 -61 -36 -133 -9 -57 -27 -134 -40 -169 -70 -186 -82 -217 -95
-238 -8 -13 -18 -19 -22 -15 -5 4 -33 103 -64 218 -72 271 -110 344 -201 386
-49 23 -55 23 -81 4z"/>
<path d="M13290 2347 c-42 -15 -80 -68 -80 -113 0 -46 42 -91 124 -133 60 -31
72 -33 128 -28 67 6 78 15 78 65 0 35 -28 75 -126 178 -44 47 -63 52 -124 31z"/>
<path d="M11018 2024 c-15 -8 -31 -26 -34 -41 -7 -26 -1 -149 16 -328 5 -55 9
-161 10 -236 0 -124 2 -139 25 -186 30 -60 64 -85 108 -81 28 3 36 11 62 60
l29 57 -17 83 c-9 46 -17 100 -17 121 0 53 44 160 96 233 80 113 132 141 246
130 61 -5 73 -4 99 15 22 15 29 28 29 52 0 73 -57 107 -177 107 -124 -1 -209
-50 -285 -166 -50 -75 -56 -70 -57 42 -1 112 -24 155 -83 154 -13 -1 -35 -7
-50 -16z"/>
<path d="M2890 1958 c-20 -33 -23 -47 -35 -143 -8 -60 -44 -139 -120 -260 -95
-152 -150 -195 -223 -175 -61 17 -75 33 -96 114 -18 69 -7 194 24 264 20 43
19 79 -2 134 -8 22 -20 29 -61 38 -52 11 -52 11 -83 -22 -43 -48 -59 -129 -59
-313 0 -194 11 -229 99 -314 35 -33 76 -65 91 -71 115 -44 303 57 413 220 37
55 37 55 40 25 16 -151 58 -235 136 -271 57 -26 78 -21 94 26 11 30 -4 115
-27 159 -5 9 -17 57 -26 106 -14 71 -16 118 -10 239 8 171 0 223 -42 255 -14
12 -41 21 -59 21 -28 0 -38 -6 -54 -32z"/>
<path d="M5000 1955 c-14 -23 -23 -58 -27 -107 -5 -61 -13 -88 -54 -168 -27
-52 -75 -133 -107 -180 -46 -68 -67 -90 -104 -109 -48 -23 -48 -23 -98 -5 -47
17 -51 22 -71 73 -17 46 -20 71 -16 141 2 50 12 104 22 130 21 51 24 134 7
166 -8 15 -29 26 -63 34 -50 12 -52 12 -80 -16 -30 -30 -32 -38 -60 -211 -14
-86 -7 -226 16 -302 31 -101 151 -201 243 -201 111 0 275 113 350 240 l27 45
7 -40 c4 -22 12 -65 18 -96 15 -81 54 -137 114 -165 56 -26 79 -21 99 23 9 20
8 37 -5 81 -62 217 -59 195 -57 408 1 167 -1 205 -15 231 -21 41 -53 63 -92
63 -26 0 -37 -7 -54 -35z"/>
<path d="M10571 1966 c-18 -19 -26 -46 -35 -116 -15 -105 -56 -194 -159 -345
-50 -73 -71 -95 -110 -114 -47 -23 -48 -23 -93 -6 -40 15 -49 24 -71 73 -23
49 -25 64 -20 141 3 52 13 108 26 141 25 64 26 98 7 144 -14 34 -22 39 -82 51
-49 10 -88 -29 -102 -102 -18 -96 -32 -215 -32 -266 0 -55 26 -180 46 -218 20
-40 119 -126 160 -139 114 -38 288 52 394 202 55 78 47 83 70 -50 16 -91 57
-154 119 -181 61 -26 56 -26 81 1 28 31 25 75 -12 182 l-33 91 0 215 c0 118
-4 226 -9 240 -25 74 -101 103 -145 56z"/>
<path d="M5944 1956 c-70 -17 -97 -41 -211 -186 l-98 -125 -5 113 c-6 124 -13
139 -71 151 -76 16 -116 -30 -100 -114 4 -24 0 -110 -10 -215 -27 -269 -28
-259 30 -313 35 -33 54 -44 69 -40 13 3 46 49 92 129 76 132 155 237 238 318
57 55 85 57 113 9 17 -29 43 -133 54 -213 13 -89 36 -160 72 -221 20 -33 42
-63 48 -65 6 -3 28 2 48 11 57 23 59 49 17 195 -11 41 -25 118 -30 170 -16
172 -58 287 -135 366 -45 48 -46 48 -121 30z"/>
<path d="M12100 1919 c-82 -12 -120 -31 -212 -108 -145 -122 -199 -212 -202
-340 -1 -69 2 -82 33 -139 66 -121 137 -158 288 -150 71 4 99 10 146 33 70 35
170 124 218 194 19 28 36 51 39 51 3 0 16 -32 30 -71 35 -105 82 -174 130
-193 53 -21 83 -20 111 3 23 19 23 19 7 67 -9 27 -30 83 -48 124 -17 41 -54
142 -81 225 -46 136 -55 154 -95 192 -24 23 -44 49 -44 57 0 26 -53 45 -160
55 -56 6 -103 10 -104 10 0 -1 -26 -5 -56 -10z m240 -152 c0 -44 -26 -139 -52
-190 -60 -119 -190 -208 -305 -209 -53 -1 -59 2 -89 35 -18 19 -36 52 -40 71
-6 33 -1 43 50 111 64 85 140 150 194 165 30 9 132 22 225 29 9 0 17 -5 17
-12z"/>
<path d="M13338 1804 c-27 -14 -28 -17 -28 -102 0 -48 9 -164 19 -257 24 -222
43 -265 121 -265 35 0 45 13 59 78 17 82 13 162 -14 274 -14 57 -28 132 -32
168 -5 52 -12 70 -34 92 -31 31 -51 34 -91 12z"/>
</g>
</svg>
